<svg xmlns="http://www.w3.org/2000/svg" viewBox="0 0 999 477" width="999" height="477">
	<style>
		tspan { white-space:pre }
		.shp0 { fill: #ff00ff } 
	</style>
	<path id="Background" class="shp0" d="M549.69 445.98C525.71 449.84 502.14 453.55 479.11 457.04C456.5 460.51 434.47 463.68 413.12 466.49C392.18 469.18 371.93 471.45 352.41 473.23C333.27 474.8 314.84 475.83 297.16 476.27C262.69 476.3 230.94 473.63 202.09 468.09C173.75 460.94 147.89 450.6 124.69 437.09C101.49 421.67 80.76 402.97 62.89 381.26C44.98 357.63 30.15 331.2 19 302.62C8.33 272.58 1.92 241.05 0.48 209.09C0.4 176.69 5.92 144.97 17.56 115.23C31.27 86.49 50.47 62.24 74.17 42.93C99.51 25.45 128.49 13.16 159.8 5.87C191.7 0.27 224.82 -0.88 257.95 1.77C290.6 5.15 322.44 11.32 352.62 19.46C381.83 27.1 409.21 35.71 434.42 44.62C458.9 52.08 481.66 59.26 502.75 65.85C513.29 68.47 523.56 70.93 533.57 73.24C543.7 75.11 553.67 76.84 563.5 78.47C573.55 79.71 583.55 80.89 593.54 82.06C603.82 82.9 614.15 83.8 624.56 84.8C635.32 85.56 645.95 86.48 656.46 87.6C667.34 88.58 678.11 89.83 688.78 91.38C699.81 92.86 710.74 94.69 721.58 96.89C732.74 99.06 743.81 101.64 754.74 104.62C777.56 110.59 799.79 118.28 821.12 127.57C843.48 136.91 864.66 147.81 884.16 160.02C904.31 172.17 922.38 185.49 937.78 199.68C953.43 213.62 966.12 228.24 975.4 243.23C984.94 257.77 991.21 272.49 994.07 287.09C997.93 301.05 999.14 314.69 997.83 327.74C998.91 339.95 998.27 350.84 996.33 360.31C997.42 368.94 997.08 376.18 995.15 382.03C995.83 387.13 994 391 989.1 393.79C985.53 396.1 977.66 397.67 964.93 398.73C952.17 399.8 933.64 400.82 909.22 402.08C884.08 403.87 852.93 406.29 816.3 409.51C797.8 411.44 778.06 413.61 757.19 416C736.32 418.62 714.43 421.46 691.68 424.5C669.05 427.75 645.71 431.16 621.79 434.71C598.13 438.41 574.05 442.19 549.69 445.98Z" />
</svg>