<svg xmlns="http://www.w3.org/2000/svg" viewBox="0 0 377 464" width="377" height="464">
	<defs>
		<linearGradient id="grd1" gradientUnits="userSpaceOnUse"  x1="-38.07" y1="624.969" x2="415.795" y2="-161.148">
			<stop offset="0" stop-color="#000000"  />
			<stop offset="0" stop-color="#ffffff"  />
			<stop offset="0.695" stop-color="#ffff36"  />
		</linearGradient>
	</defs>
	<style>
		tspan { white-space:pre }
		.shp0 { fill: url(#grd1) } 
	</style>
	<path id="Background" class="shp0" d="M248.75 459.12C235.57 462.52 222.44 463.73 209.42 462.84C196.22 461.34 183.05 457.87 170.01 452.74C156.72 447.23 143.54 440.37 130.67 432.54C117.57 424.71 104.85 416.19 92.74 407.24C80.52 398.53 69.05 389.48 58.61 380.18C48.19 371.05 38.93 361.5 31.08 351.48C23.34 341.34 17.03 330.44 12.33 318.66C7.65 306.48 4.46 293.19 2.81 278.77C0.93 263.81 0.46 248.39 1.17 232.74C1.39 216.69 2.69 200.53 4.95 184.5C6.65 168.24 9.37 152.21 13.12 136.68C16.45 121.02 21.03 105.93 26.92 91.69C32.72 77.42 40.11 64.11 49.2 52.11C58.53 40.23 69.78 29.85 82.92 21.33C96.54 13.18 112.08 7.11 129.32 3.45C146.96 0.38 165.99 -0.16 185.87 2.02C205.64 4.81 224.61 10.02 242.11 17.23C258.74 24.7 273.25 33.8 285.21 44.06C295.75 54.17 303.48 65.12 308.35 76.51C311.83 87.46 312.77 98.67 311.55 109.9C309.64 120.61 306.38 131.35 302.46 142.01C298.94 152.27 295.73 162.6 293.47 173C292.6 183.23 293.35 193.72 296.01 204.47C300.42 215.25 306.73 226.44 314.69 238C323.83 249.66 333.4 261.16 342.69 272.36C351.96 283.63 360.07 294.58 366.53 305.1C372.13 315.65 375.62 325.81 376.87 335.51C377.01 345.34 374.92 354.84 370.77 363.97C365.75 373.41 358.95 382.61 350.67 391.51C341.94 400.82 332.05 409.84 321.28 418.36C310.39 427.2 298.79 435.35 286.65 442.46C274.53 449.53 261.88 455.22 248.75 459.12Z" />
</svg>